<svg width="207" height="92" viewBox="0 0 207 92" fill="none" xmlns="http://www.w3.org/2000/svg">
<g clip-path="url(#clip0)" filter="url(#filter0_d)">
<path d="M106.479 30.5231L115.186 29.9601C115.384 31.3843 115.749 32.4442 116.344 33.206C117.304 34.3984 118.629 34.9946 120.383 34.9946C121.674 34.9946 122.7 34.6965 123.396 34.0672C124.058 33.5704 124.455 32.7755 124.455 31.9474C124.455 31.1525 124.091 30.3906 123.462 29.8938C122.8 29.2976 121.244 28.7014 118.794 28.1715C114.789 27.2772 111.908 26.0848 110.22 24.5611C108.532 23.1369 107.572 21.0502 107.638 18.831C107.638 17.3074 108.101 15.7837 108.962 14.5251C109.955 13.1008 111.313 11.9747 112.935 11.3453C114.689 10.5835 117.139 10.1861 120.218 10.1861C123.992 10.1861 126.872 10.8816 128.858 12.3059C130.844 13.697 132.036 15.9493 132.4 19.0297L123.793 19.5265C123.561 18.2017 123.098 17.2411 122.336 16.6118C121.575 15.9825 120.582 15.6844 119.291 15.6844C118.231 15.6844 117.437 15.9162 116.907 16.3468C116.411 16.7443 116.08 17.3405 116.113 18.0029C116.113 18.4998 116.378 18.9635 116.775 19.2616C117.205 19.659 118.231 20.0234 119.853 20.3546C123.859 21.2158 126.706 22.077 128.461 22.9713C130.215 23.8656 131.473 24.9586 132.234 26.2504C133.029 27.5753 133.426 29.0989 133.393 30.6556C133.393 32.5105 132.863 34.3653 131.804 35.9221C130.712 37.5451 129.189 38.8037 127.401 39.5655C125.514 40.3936 123.131 40.8242 120.284 40.8242C115.252 40.8242 111.776 39.8636 109.823 37.9094C107.87 35.9552 106.711 33.5041 106.479 30.5231ZM14.0856 40.3273V10.716H29.3466C32.1605 10.716 34.3453 10.9479 35.835 11.4447C37.2916 11.9084 38.5827 12.869 39.4434 14.1607C40.4034 15.585 40.8669 17.2411 40.8338 18.9635C40.9331 21.8782 39.4434 24.6605 36.8944 26.1179C35.9012 26.681 34.8088 27.0784 33.6833 27.2772C34.5109 27.509 35.3385 27.9065 36.0668 28.3702C36.6295 28.8339 37.093 29.3639 37.5233 29.9269C38.0199 30.49 38.4503 31.1193 38.8144 31.7818L43.2504 40.3604H32.8556L27.9562 31.2518C27.3272 30.0925 26.7976 29.3307 26.301 28.9664C25.6389 28.5027 24.8444 28.2708 24.0499 28.2708H23.2554V40.2942H14.0856V40.3273ZM23.2554 22.7063H27.1286C27.9562 22.64 28.7507 22.5076 29.5452 22.3088C30.1411 22.2095 30.6708 21.8782 31.0349 21.3814C31.9287 20.189 31.7963 18.4998 30.7039 17.473C30.108 16.9761 28.9494 16.7112 27.2941 16.7112H23.2554V22.7063ZM12 65.699L20.7064 65.1359C20.905 66.5602 21.2692 67.6201 21.8651 68.3819C22.792 69.5743 24.1492 70.2036 25.9038 70.2036C27.1948 70.2036 28.2211 69.9055 28.9162 69.2762C29.5783 68.7462 29.9756 67.9844 29.9756 67.1564C29.9756 66.3614 29.6114 65.5996 28.9825 65.1028C28.3204 64.5066 26.7645 63.9104 24.2817 63.3804C20.276 62.4861 17.396 61.2937 15.7077 59.7701C14.0194 58.3458 13.0593 56.2591 13.1255 54.0399C13.1255 52.5163 13.589 50.9927 14.4497 49.7341C15.4428 48.3098 16.8001 47.1836 18.4222 46.5543C20.1767 45.7925 22.6264 45.395 25.7051 45.395C29.479 45.395 32.3591 46.0906 34.3453 47.5149C36.3316 48.9391 37.4902 51.1583 37.8544 54.2387L29.2473 54.7355C29.0156 53.4106 28.5521 52.4501 27.7907 51.8208C27.0624 51.1914 26.0362 50.8933 24.7451 50.9265C23.6858 50.9265 22.8913 51.1583 22.3616 51.622C21.8319 52.0195 21.534 52.6157 21.5671 53.2781C21.5671 53.775 21.8319 54.2387 22.2292 54.5368C22.6596 54.9342 23.6858 55.2986 25.3079 55.6298C29.3135 56.491 32.1605 57.3522 33.915 58.2465C35.6695 59.1408 36.9275 60.2338 37.6889 61.5256C38.4834 62.8505 38.8806 64.3741 38.8806 65.8977C38.8806 67.7526 38.3178 69.5743 37.2916 71.131C36.1992 72.754 34.6764 74.0127 32.8887 74.7745C31.0018 75.6025 28.6183 76.0331 25.7713 76.0331C20.7395 76.0331 17.2636 75.0726 15.3104 73.1184C13.3573 71.131 12.2648 68.68 12 65.699H12Z" fill="#E9E9E9"/>
<path d="M56.0286 63.3804L64.0398 65.7983C63.6094 67.8188 62.7156 69.7399 61.4908 71.4291C60.3652 72.9196 58.8755 74.0789 57.1872 74.8407C55.4658 75.6025 53.2809 76 50.6326 76C47.4215 76 44.7731 75.5363 42.7538 74.6089C40.7013 73.6814 38.9468 72.0253 37.4571 69.6736C35.9674 67.322 35.2391 64.3078 35.2391 60.6313C35.2391 55.7292 36.5302 51.9532 39.1454 49.3366C41.7607 46.7199 45.4352 45.395 50.2022 45.395C53.943 45.395 56.8562 46.1568 59.0079 47.6473C61.1266 49.171 62.7156 51.4895 63.7749 54.603L55.6975 56.3916C55.4989 55.6961 55.201 55.0005 54.8037 54.4043C54.3072 53.7087 53.6782 53.1788 52.9168 52.7813C52.1554 52.3838 51.2947 52.2182 50.434 52.2182C48.3484 52.2182 46.7594 53.0463 45.667 54.7355C44.8394 55.961 44.409 57.9152 44.409 60.565C44.409 63.8441 44.9056 66.0964 45.8987 67.322C46.8918 68.5475 48.2822 69.1437 50.1029 69.1437C51.8574 69.1437 53.1816 68.6469 54.0754 67.6863C54.9692 66.6595 55.6313 65.2353 56.0286 63.3804ZM74.7324 45.8919H83.8692V56.2591H93.8667V45.8919H103.07V75.5032H93.8667V63.5129H83.8692V75.5032H74.7324V45.8919V45.8919Z" fill="#E9E9E9"/>
<path d="M101.812 60.6975C101.812 55.8617 103.169 52.0857 105.85 49.4028C108.532 46.7199 112.306 45.3619 117.106 45.3619C122.038 45.3619 125.812 46.6868 128.494 49.3366C131.175 51.9864 132.499 55.6961 132.499 60.4657C132.499 63.9435 131.903 66.7589 130.745 68.9781C129.619 71.1642 127.865 72.9528 125.713 74.1452C123.495 75.3707 120.747 76 117.47 76C114.126 76 111.379 75.47 109.194 74.4101C106.943 73.284 105.089 71.5285 103.864 69.3755C102.507 67.057 101.812 64.1754 101.812 60.6975ZM110.948 60.7306C110.948 63.7116 111.511 65.8646 112.604 67.1895C113.696 68.4812 115.219 69.1437 117.139 69.1437C119.092 69.1437 120.615 68.5144 121.707 67.2226C122.8 65.9308 123.329 63.6454 123.329 60.3332C123.329 57.5509 122.767 55.4973 121.641 54.2387C120.516 52.9469 118.993 52.3176 117.073 52.3176C115.384 52.2513 113.762 52.98 112.637 54.2718C111.511 55.5636 110.948 57.7165 110.948 60.7306V60.7306ZM141.868 60.6975C141.868 55.8617 143.225 52.0857 145.906 49.4028C148.588 46.7199 152.362 45.3619 157.162 45.3619C162.094 45.3619 165.901 46.6868 168.55 49.3366C171.198 51.9864 172.555 55.6961 172.555 60.4657C172.555 63.9435 171.959 66.7589 170.801 68.9781C169.675 71.1642 167.921 72.9528 165.769 74.1452C163.551 75.3707 160.803 76 157.526 76C154.182 76 151.435 75.47 149.25 74.4101C146.999 73.284 145.145 71.5285 143.92 69.3755C142.563 67.057 141.868 64.1754 141.868 60.6975V60.6975ZM151.004 60.7306C151.004 63.7116 151.567 65.8646 152.66 67.1895C153.752 68.4812 155.275 69.1437 157.195 69.1437C159.148 69.1437 160.671 68.5144 161.763 67.2226C162.856 65.9308 163.385 63.6454 163.385 60.3332C163.385 57.5509 162.823 55.4973 161.697 54.2387C160.572 52.9469 159.049 52.3176 157.129 52.3176C155.44 52.2513 153.785 52.98 152.693 54.2718C151.567 55.5636 151.004 57.7165 151.004 60.7306V60.7306Z" fill="white"/>
<path d="M171.595 45.8919H180.732V68.2163H195V75.5032H171.562V45.8919H171.595Z" fill="#E9E9E9"/>
<path d="M161.525 44.183C170.723 37.2472 173.56 25.4899 167.86 17.9223C162.161 10.3548 150.083 9.84264 140.884 16.7784C131.686 23.7142 128.849 35.4715 134.549 43.0391C140.248 50.6066 152.326 51.1188 161.525 44.183Z" fill="white"/>
<path d="M111.089 26.7275L158.624 -9.1137L191.517 34.559L143.982 70.4002L111.089 26.7275Z" fill="white"/>
<path d="M161.525 44.183C170.723 37.2472 173.56 25.4899 167.86 17.9223C162.161 10.3548 150.083 9.84264 140.884 16.7784C131.686 23.7142 128.849 35.4715 134.549 43.0391C140.248 50.6066 152.326 51.1188 161.525 44.183Z" fill="white"/>
<path d="M124.326 29.6437L157.612 4.54744L178.271 31.9788L144.986 57.075L124.326 29.6437Z" fill="white"/>
<path d="M161.525 44.183C170.723 37.2472 173.56 25.4899 167.86 17.9223C162.161 10.3548 150.083 9.84263 140.884 16.7784C131.686 23.7142 128.849 35.4715 134.549 43.0391C140.248 50.6066 152.326 51.1188 161.525 44.183Z" fill="white" stroke="black" stroke-width="4" stroke-miterlimit="10"/>
<path d="M124.326 29.6437L157.612 4.54744L178.271 31.9788L144.986 57.075L124.326 29.6437Z" stroke="black" stroke-width="4" stroke-miterlimit="10"/>
<path d="M161.525 44.183C170.723 37.2472 173.56 25.4899 167.86 17.9223C162.161 10.3548 150.083 9.84264 140.884 16.7784C131.686 23.7142 128.849 35.4715 134.549 43.0391C140.248 50.6066 152.326 51.1188 161.525 44.183Z" stroke="black" stroke-width="4" stroke-miterlimit="10"/>
<path d="M124.326 29.6437L157.612 4.54744L178.271 31.9788L144.986 57.075L124.326 29.6437Z" fill="white"/>
<path d="M161.525 44.183C170.723 37.2472 173.56 25.4899 167.86 17.9223C162.161 10.3548 150.083 9.84263 140.884 16.7784C131.686 23.7142 128.849 35.4715 134.549 43.0391C140.248 50.6066 152.326 51.1188 161.525 44.183Z" fill="white" stroke="black" stroke-width="4" stroke-miterlimit="10"/>
<path d="M124.326 29.6437L157.612 4.54744L178.271 31.9788L144.986 57.075L124.326 29.6437Z" stroke="black" stroke-width="4" stroke-miterlimit="10"/>
<path d="M111.089 26.7275L158.624 -9.1137L191.517 34.559L143.982 70.4002L111.089 26.7275Z" stroke="black" stroke-width="4" stroke-miterlimit="10"/>
<path d="M161.525 44.183C170.723 37.2472 173.56 25.4899 167.86 17.9223C162.161 10.3548 150.083 9.84264 140.884 16.7784C131.686 23.7142 128.849 35.4715 134.549 43.0391C140.248 50.6066 152.326 51.1188 161.525 44.183Z" stroke="black" stroke-width="4" stroke-miterlimit="10"/>
<path d="M141.901 28.3039L145.211 25.9854L149.283 31.7818C149.978 32.7092 150.508 33.7029 150.905 34.7959C151.137 35.624 151.071 36.5183 150.74 37.3132C150.309 38.3069 149.614 39.1349 148.687 39.7311C147.595 40.4929 146.668 40.9235 145.873 41.056C145.112 41.1885 144.317 41.056 143.589 40.7248C142.795 40.3273 142.099 39.7642 141.57 39.0356L144.417 36.3858C144.649 36.7501 144.946 37.0813 145.277 37.3463C145.509 37.5119 145.774 37.6113 146.072 37.6113C146.304 37.6113 146.535 37.5119 146.701 37.3794C147.032 37.1807 147.264 36.7832 147.231 36.3858C147.131 35.8227 146.9 35.2596 146.535 34.829L141.901 28.3039V28.3039ZM151.832 31.9805L154.845 29.5957C155.176 29.9932 155.606 30.2913 156.069 30.4569C156.732 30.6556 157.427 30.5231 157.99 30.0925C158.387 29.8276 158.718 29.4632 158.85 28.9995C159.049 28.4033 158.718 27.7409 158.122 27.5421C158.023 27.509 157.923 27.4759 157.824 27.4759C157.427 27.4428 156.732 27.6084 155.705 28.039C154.017 28.7345 152.693 28.9995 151.7 28.9001C150.74 28.8008 149.846 28.3039 149.316 27.4759C148.919 26.9128 148.72 26.2504 148.687 25.5879C148.687 24.8261 148.886 24.0643 149.316 23.435C149.945 22.5407 150.707 21.7789 151.633 21.1827C153.024 20.2221 154.249 19.7584 155.308 19.7584C156.367 19.7584 157.361 20.2552 158.287 21.282L155.308 23.6337C154.712 22.8719 153.587 22.7063 152.825 23.3025L152.726 23.4019C152.395 23.6006 152.163 23.8987 152.031 24.263C151.931 24.528 151.998 24.8261 152.163 25.058C152.296 25.2236 152.494 25.3561 152.726 25.3561C152.991 25.3892 153.454 25.2567 154.116 24.9586C155.772 24.263 157.029 23.8656 157.89 23.7331C158.618 23.6006 159.38 23.6668 160.075 23.9649C160.704 24.2299 161.234 24.6936 161.598 25.2567C162.061 25.9191 162.326 26.7141 162.359 27.5421C162.392 28.4033 162.161 29.2314 161.697 29.9601C161.101 30.8544 160.34 31.6162 159.446 32.2124C157.625 33.471 156.136 34.001 154.944 33.8022C153.653 33.6035 152.594 32.9411 151.832 31.9805V31.9805Z" fill="black"/>
</g>
<defs>
<filter id="filter0_d" x="0" y="0" width="207" height="92" filterUnits="userSpaceOnUse" color-interpolation-filters="sRGB">
<feFlood flood-opacity="0" result="BackgroundImageFix"/>
<feColorMatrix in="SourceAlpha" type="matrix" values="0 0 0 0 0 0 0 0 0 0 0 0 0 0 0 0 0 0 127 0" result="hardAlpha"/>
<feOffset dy="4"/>
<feGaussianBlur stdDeviation="6"/>
<feComposite in2="hardAlpha" operator="out"/>
<feColorMatrix type="matrix" values="0 0 0 0 0 0 0 0 0 0 0 0 0 0 0 0 0 0 0.25 0"/>
<feBlend mode="normal" in2="BackgroundImageFix" result="effect1_dropShadow"/>
<feBlend mode="normal" in="SourceGraphic" in2="effect1_dropShadow" result="shape"/>
</filter>
<clipPath id="clip0">
<rect width="183" height="68" fill="white" transform="translate(12 8)"/>
</clipPath>
</defs>
</svg>
